<svg xmlns="http://www.w3.org/2000/svg" viewBox="0 0 400 200" preserveAspectRatio="xMidYMid slice">
  <defs>
    <!-- 渐变背景 -->
    <linearGradient id="bgGradient" x1="0%" y1="0%" x2="100%" y2="100%">
      <stop offset="0%" style="stop-color:#23c93b;stop-opacity:1" />
      <stop offset="50%" style="stop-color:#1e8e3e;stop-opacity:1" />
      <stop offset="100%" style="stop-color:#15723a;stop-opacity:1" />
    </linearGradient>
    
    <!-- 光效渐变 -->
    <radialGradient id="lightGradient" cx="20%" cy="30%">
      <stop offset="0%" style="stop-color:rgba(255,255,255,0.4);stop-opacity:1" />
      <stop offset="70%" style="stop-color:rgba(255,255,255,0.1);stop-opacity:1" />
      <stop offset="100%" style="stop-color:rgba(255,255,255,0);stop-opacity:0" />
    </radialGradient>
    
    <!-- 信号波纹渐变 -->
    <linearGradient id="waveGradient" x1="0%" y1="0%" x2="100%" y2="0%">
      <stop offset="0%" style="stop-color:rgba(255,255,255,0.2);stop-opacity:1" />
      <stop offset="50%" style="stop-color:rgba(255,255,255,0.6);stop-opacity:1" />
      <stop offset="100%" style="stop-color:rgba(255,255,255,0.2);stop-opacity:1" />
    </linearGradient>
    
    <!-- 动画定义 -->
    <style>
      .wave-animate {
        animation: waveMove 3s ease-in-out infinite;
      }
      .signal-animate {
        animation: signalPulse 2s ease-in-out infinite;
      }
      .float-animate {
        animation: floatMove 4s ease-in-out infinite;
      }
      
      @keyframes waveMove {
        0%, 100% { transform: translateX(-20px); opacity: 0.3; }
        50% { transform: translateX(0); opacity: 0.8; }
      }
      
      @keyframes signalPulse {
        0%, 100% { transform: scale(1); opacity: 0.6; }
        50% { transform: scale(1.1); opacity: 1; }
      }
      
      @keyframes floatMove {
        0%, 100% { transform: translateY(0) rotate(0deg); }
        33% { transform: translateY(-5px) rotate(2deg); }
        66% { transform: translateY(2px) rotate(-1deg); }
      }
    </style>
  </defs>
  
  <!-- 背景 -->
  <rect width="100%" height="100%" fill="url(#bgGradient)" />
  
  <!-- 光效层 -->
  <ellipse cx="80" cy="60" rx="120" ry="80" fill="url(#lightGradient)" />
  
  <!-- 装饰性几何图案 -->
  <g opacity="0.15" fill="white">
    <!-- 右上角装饰圆 -->
    <circle cx="350" cy="50" r="30" />
    <circle cx="380" cy="20" r="15" />
    
    <!-- 左下角装饰 -->
    <circle cx="30" cy="160" r="20" />
    <circle cx="60" cy="180" r="10" />
  </g>
  
  <!-- 信号波纹 -->
  <g class="wave-animate">
    <path d="M50 120 Q100 100 150 120 T250 120" stroke="url(#waveGradient)" stroke-width="3" fill="none" opacity="0.7"/>
    <path d="M60 130 Q110 110 160 130 T260 130" stroke="url(#waveGradient)" stroke-width="2" fill="none" opacity="0.5"/>
    <path d="M40 110 Q90 90 140 110 T240 110" stroke="url(#waveGradient)" stroke-width="2" fill="none" opacity="0.4"/>
  </g>
  
  <!-- 网络节点 -->
  <g class="signal-animate" fill="white" opacity="0.8">
    <circle cx="80" cy="80" r="3"/>
    <circle cx="150" cy="90" r="2.5"/>
    <circle cx="220" cy="85" r="3"/>
    <circle cx="300" cy="95" r="2"/>
    
    <!-- 连接线 -->
    <line x1="80" y1="80" x2="150" y2="90" stroke="white" stroke-width="1" opacity="0.4"/>
    <line x1="150" y1="90" x2="220" y2="85" stroke="white" stroke-width="1" opacity="0.4"/>
    <line x1="220" y1="85" x2="300" y2="95" stroke="white" stroke-width="1" opacity="0.4"/>
  </g>
  
  <!-- 流量数据图标 -->
  <g class="float-animate" transform="translate(320, 140)" fill="white" opacity="0.6">
    <!-- 简化的数据流图标 -->
    <rect x="0" y="10" width="4" height="20" rx="2"/>
    <rect x="8" y="5" width="4" height="25" rx="2"/>
    <rect x="16" y="15" width="4" height="15" rx="2"/>
    <rect x="24" y="8" width="4" height="22" rx="2"/>
  </g>
  
  <!-- 信号强度图标 -->
  <g class="signal-animate" transform="translate(30, 40)" fill="white" opacity="0.7">
    <rect x="0" y="15" width="3" height="5" rx="1"/>
    <rect x="5" y="10" width="3" height="10" rx="1"/>
    <rect x="10" y="5" width="3" height="15" rx="1"/>
    <rect x="15" y="0" width="3" height="20" rx="1"/>
  </g>
  
  <!-- 装饰性粒子 -->
  <g class="float-animate" fill="white" opacity="0.3">
    <circle cx="120" cy="50" r="1.5"/>
    <circle cx="180" cy="160" r="1"/>
    <circle cx="280" cy="60" r="2"/>
    <circle cx="340" cy="130" r="1.5"/>
    <circle cx="90" cy="170" r="1"/>
  </g>
  
  <!-- 流量套餐文字信息 -->
  <g class="package-info" transform="translate(50, 30)" fill="white">
    <!-- 20元套餐 -->
    <g class="package-1" opacity="0.9">
      <rect x="-5" y="-5" width="90" height="35" rx="8" fill="rgba(255,255,255,0.15)" stroke="rgba(255,255,255,0.3)" stroke-width="1"/>
      <text x="40" y="12" text-anchor="middle" font-family="-apple-system, BlinkMacSystemFont, sans-serif" font-size="14" font-weight="bold">
        <tspan fill="#FFE082">20元</tspan>
      </text>
      <text x="40" y="25" text-anchor="middle" font-family="-apple-system, BlinkMacSystemFont, sans-serif" font-size="11" font-weight="500">
        129G流量
      </text>
    </g>
    
    <!-- 30元套餐 -->
    <g class="package-2" transform="translate(160, 0)" opacity="0.9">
      <rect x="-5" y="-5" width="90" height="35" rx="8" fill="rgba(255,255,255,0.15)" stroke="rgba(255,255,255,0.3)" stroke-width="1"/>
      <text x="40" y="12" text-anchor="middle" font-family="-apple-system, BlinkMacSystemFont, sans-serif" font-size="14" font-weight="bold">
        <tspan fill="#FFE082">30元</tspan>
      </text>
      <text x="40" y="25" text-anchor="middle" font-family="-apple-system, BlinkMacSystemFont, sans-serif" font-size="11" font-weight="500">
        200G流量
      </text>
    </g>
  </g>
  
  <!-- 优惠标识 -->
  <g class="promo-badge float-animate" transform="translate(300, 120)">
    <ellipse cx="0" cy="0" rx="35" ry="15" fill="rgba(255,193,7,0.9)" stroke="rgba(255,193,7,1)" stroke-width="1"/>
    <text x="0" y="4" text-anchor="middle" font-family="-apple-system, BlinkMacSystemFont, sans-serif" font-size="10" font-weight="bold" fill="#D84315">
      超值优惠
    </text>
  </g>
  
  <!-- 装饰性文字效果 -->
  <g class="decorative-text" opacity="0.6">
    <!-- "流量" 装饰文字 -->
    <text x="70" y="160" font-family="-apple-system, BlinkMacSystemFont, sans-serif" font-size="36" font-weight="900" fill="rgba(255,255,255,0.08)">
      流量
    </text>
    
    <!-- "大卡" 装饰文字 -->
    <text x="280" y="180" font-family="-apple-system, BlinkMacSystemFont, sans-serif" font-size="28" font-weight="900" fill="rgba(255,255,255,0.06)">
      大卡
    </text>
  </g>

  <!-- 边缘光晕效果 -->
  <rect width="100%" height="100%" fill="none" stroke="url(#lightGradient)" stroke-width="2" opacity="0.3" rx="20"/>
</svg>
