<svg xmlns="http://www.w3.org/2000/svg" viewBox="0 0 400 200">
  <defs>
    <!-- 渐变背景 -->
    <linearGradient id="bgGradient" x1="0%" y1="0%" x2="100%" y2="100%">
      <stop offset="0%" style="stop-color:#23c93b;stop-opacity:1" />
      <stop offset="50%" style="stop-color:#1e8e3e;stop-opacity:1" />
      <stop offset="100%" style="stop-color:#15723a;stop-opacity:1" />
    </linearGradient>
    
    <!-- 光效渐变 -->
    <radialGradient id="lightGradient" cx="20%" cy="30%">
      <stop offset="0%" style="stop-color:rgba(255,255,255,0.4);stop-opacity:1" />
      <stop offset="70%" style="stop-color:rgba(255,255,255,0.1);stop-opacity:1" />
      <stop offset="100%" style="stop-color:rgba(255,255,255,0);stop-opacity:0" />
    </radialGradient>
    
    <!-- 信号波纹渐变 -->
    <linearGradient id="waveGradient" x1="0%" y1="0%" x2="100%" y2="0%">
      <stop offset="0%" style="stop-color:rgba(255,255,255,0.2);stop-opacity:1" />
      <stop offset="50%" style="stop-color:rgba(255,255,255,0.6);stop-opacity:1" />
      <stop offset="100%" style="stop-color:rgba(255,255,255,0.2);stop-opacity:1" />
    </linearGradient>
    
    <!-- 动画定义 -->
    <style>
      .wave-animate {
        animation: waveMove 3s ease-in-out infinite;
      }
      .signal-animate {
        animation: signalPulse 2s ease-in-out infinite;
      }
      .float-animate {
        animation: floatMove 4s ease-in-out infinite;
      }
      
      @keyframes waveMove {
        0%, 100% { transform: translateX(-15px); opacity: 0.4; }
        50% { transform: translateX(15px); opacity: 0.8; }
      }
      
      @keyframes signalPulse {
        0%, 100% { transform: scale(1); opacity: 0.7; }
        50% { transform: scale(1.1); opacity: 1; }
      }
      
      @keyframes floatMove {
        0%, 100% { transform: translateY(0) rotate(0deg); opacity: 0.6; }
        33% { transform: translateY(-8px) rotate(3deg); opacity: 0.8; }
        66% { transform: translateY(5px) rotate(-2deg); opacity: 0.4; }
      }
    </style>
  </defs>
  
  <!-- 背景 -->
  <rect width="100%" height="100%" fill="url(#bgGradient)" />
  
  <!-- 光效层 -->
  <ellipse cx="80" cy="60" rx="120" ry="80" fill="url(#lightGradient)" />
  
  <!-- 装饰性几何图案 -->
  <g opacity="0.15" fill="white">
    <circle cx="350" cy="50" r="30" />
    <circle cx="380" cy="20" r="15" />
    <circle cx="30" cy="160" r="20" />
    <circle cx="60" cy="180" r="10" />
  </g>
  
  <!-- 信号波纹 -->
  <g class="wave-animate">
    <path d="M50 120 Q100 100 150 120 T250 120" stroke="url(#waveGradient)" stroke-width="3" fill="none" opacity="0.7"/>
    <path d="M60 130 Q110 110 160 130 T260 130" stroke="url(#waveGradient)" stroke-width="2" fill="none" opacity="0.5"/>
    <path d="M40 110 Q90 90 140 110 T240 110" stroke="url(#waveGradient)" stroke-width="2" fill="none" opacity="0.4"/>
  </g>
  
  <!-- 网络节点 -->
  <g class="signal-animate" fill="white" opacity="0.8">
    <circle cx="80" cy="80" r="3"/>
    <circle cx="150" cy="90" r="2.5"/>
    <circle cx="220" cy="85" r="3"/>
    <circle cx="300" cy="95" r="2"/>
    <line x1="80" y1="80" x2="150" y2="90" stroke="white" stroke-width="1" opacity="0.4"/>
    <line x1="150" y1="90" x2="220" y2="85" stroke="white" stroke-width="1" opacity="0.4"/>
    <line x1="220" y1="85" x2="300" y2="95" stroke="white" stroke-width="1" opacity="0.4"/>
  </g>
  
  <!-- 流量数据图标 -->
  <g class="float-animate" transform="translate(320, 140)" fill="white" opacity="0.6">
    <!-- 简化的数据流图标 -->
    <rect x="0" y="10" width="4" height="20" rx="2"/>
    <rect x="8" y="5" width="4" height="25" rx="2"/>
    <rect x="16" y="15" width="4" height="15" rx="2"/>
    <rect x="24" y="8" width="4" height="22" rx="2"/>
  </g>
  
  <!-- 信号强度图标 -->
  <g class="signal-animate" transform="translate(30, 40)" fill="white" opacity="0.7">
    <rect x="0" y="15" width="3" height="5" rx="1"/>
    <rect x="5" y="10" width="3" height="10" rx="1"/>
    <rect x="10" y="5" width="3" height="15" rx="1"/>
    <rect x="15" y="0" width="3" height="20" rx="1"/>
  </g>
  
  <!-- 装饰性粒子 -->
  <g class="float-animate" fill="white" opacity="0.3">
    <circle cx="120" cy="50" r="1.5"/>
    <circle cx="180" cy="160" r="1"/>
    <circle cx="280" cy="60" r="2"/>
    <circle cx="340" cy="130" r="1.5"/>
    <circle cx="90" cy="170" r="1"/>
  </g>
</svg>
